<svg xmlns="http://www.w3.org/2000/svg" width="36.939" height="25.973" viewBox="0 0 36.939 25.973">
  <g id="email" transform="translate(0 -76)">
    <g id="Grupo_10" data-name="Grupo 10" transform="translate(0 76)">
      <path id="Trazado_38" data-name="Trazado 38" d="M33.693,76H3.247A3.251,3.251,0,0,0,0,79.247v19.48a3.251,3.251,0,0,0,3.247,3.247H33.693a3.251,3.251,0,0,0,3.247-3.247V79.247A3.251,3.251,0,0,0,33.693,76Zm-.5,2.164L19.308,92.1a1.264,1.264,0,0,1-1.677,0L3.745,78.164ZM2.164,98.328V79.645l9.312,9.342Zm1.581,1.48L13,90.519l3.094,3.1a3.425,3.425,0,0,0,4.743,0l3.094-3.1,9.259,9.289Zm31.03-1.48-9.312-9.342,9.312-9.342Z" transform="translate(0 -76)" fill="#fff"/>
    </g>
  </g>
</svg>
