<svg id="Grupo_7" data-name="Grupo 7" xmlns="http://www.w3.org/2000/svg" xmlns:xlink="http://www.w3.org/1999/xlink" width="118.912" height="38.976" viewBox="0 0 118.912 38.976">
  <defs>
    <clipPath id="clip-path">
      <rect id="Rectángulo_3" data-name="Rectángulo 3" width="118.912" height="38.977" fill="#fff"/>
    </clipPath>
  </defs>
  <g id="Grupo_6" data-name="Grupo 6" clip-path="url(#clip-path)">
    <path id="Trazado_28" data-name="Trazado 28" d="M0,33.475V33.4A13.475,13.475,0,0,1,13.654,19.725a14.314,14.314,0,0,1,9.029,2.687,2.352,2.352,0,0,1,.944,1.888,2.3,2.3,0,0,1-2.3,2.3h0a2.37,2.37,0,0,1-1.428-.533,10.116,10.116,0,0,0-6.415-2.081c-4.89,0-8.594,4.285-8.594,9.344V33.4c0,5.447,3.583,9.465,9.006,9.465a10.8,10.8,0,0,0,6.391-2.01V35.9H15.058a2.022,2.022,0,1,1,0-4.043h7.384A2.306,2.306,0,0,1,24.79,34.2V41.27a3.219,3.219,0,0,1-1.622,2.954A16.78,16.78,0,0,1,13.751,47.1C5.447,47.08,0,41.172,0,33.474M28.929,21.1a2.258,2.258,0,0,1,2.24-2.276H31.2A2.278,2.278,0,0,1,33.5,21.1V44.538a2.288,2.288,0,0,1-4.576.035V21.1Zm8.134,15.662v-.072A10.424,10.424,0,0,1,47.715,26.26,10.344,10.344,0,0,1,58.343,36.622v.073A10.446,10.446,0,0,1,47.642,47.1,10.356,10.356,0,0,1,37.063,36.767m16.7,0v-.072a6.19,6.19,0,0,0-6.125-6.44c-3.68,0-6,2.881-6,6.342v.073a6.153,6.153,0,0,0,6.076,6.391,5.964,5.964,0,0,0,6.052-6.295m16,10.241h-.218A2.844,2.844,0,0,1,66.937,45L60.279,29.771a3.408,3.408,0,0,1-.266-1.138,2.291,2.291,0,0,1,2.276-2.2,2.318,2.318,0,0,1,2.276,1.67L69.7,41.342l5.229-13.315a2.277,2.277,0,0,1,2.155-1.6,2.171,2.171,0,0,1,2.227,2.2,2.565,2.565,0,0,1-.267,1.089L72.383,45a2.877,2.877,0,0,1-2.614,2.01M80.977,36.767v-.072a10.643,10.643,0,0,1,21.28-.073v.073A10.446,10.446,0,0,1,91.556,47.1,10.341,10.341,0,0,1,80.977,36.767m16.7,0v-.072a6.19,6.19,0,0,0-6.125-6.44c-3.68,0-6,2.881-6,6.342v.073a6.158,6.158,0,0,0,6.1,6.391c3.68.024,6.028-2.857,6.028-6.295" transform="translate(0 -8.128)" fill="#fff"/>
    <path id="Trazado_29" data-name="Trazado 29" d="M186.566,0a8.978,8.978,0,0,0-8.981,8.981,8.82,8.82,0,0,0,1.694,5.229l.242.339,4.672,6.61a2.2,2.2,0,0,0,1.816.943h1.138a2.2,2.2,0,0,0,1.816-.943l4.672-6.61.243-.339a8.869,8.869,0,0,0,1.695-5.229A9.015,9.015,0,0,0,186.566,0m3.7,11.644-.242.339-3.438,4.866-3.461-4.866-.243-.363a4.6,4.6,0,0,1-.871-2.663,4.546,4.546,0,0,1,4.541-4.551h.01a4.546,4.546,0,0,1,4.551,4.541v.01a4.658,4.658,0,0,1-.847,2.687m-6.221,14.5a2.455,2.455,0,0,1,2.494-2.469,2.42,2.42,0,0,1,2.494,2.445v.024a2.494,2.494,0,0,1-4.987,0" transform="translate(-76.66 0)" fill="#fff"/>
  </g>
</svg>
