<svg id="Grupo_9" data-name="Grupo 9" xmlns="http://www.w3.org/2000/svg" xmlns:xlink="http://www.w3.org/1999/xlink" width="161.409" height="38.977" viewBox="0 0 161.409 38.977">
  <defs>
    <clipPath id="clip-path">
      <rect id="Rectángulo_4" data-name="Rectángulo 4" width="161.409" height="38.977" fill="#fff"/>
    </clipPath>
  </defs>
  <g id="Grupo_8" data-name="Grupo 8" transform="translate(0 0)" clip-path="url(#clip-path)">
    <path id="Trazado_30" data-name="Trazado 30" d="M18.1.377a2.235,2.235,0,0,1,2.482,0,53.63,53.63,0,0,1,5.5,3.96s.476.33.489-.228A8.753,8.753,0,0,1,26.7,1.951a.983.983,0,0,1,.914-.635s2.158.108,3.529.292a1.338,1.338,0,0,1,1.155,1.187s.882,5.877,1.079,8A6.955,6.955,0,0,0,35.106,13.7s3.173,4.443,3.541,5.293c0,0,.736,1.536-.85,1.745,0,0-2.894.292-3.173.355a.723.723,0,0,0-.635.787s-.152,10.224-.9,15.137c0,0-.2,1.948-1.269,1.9,0,0-2.977-.1-3.668-.076,0,0-.3,0-.254-.4,0,0,1.517-15.943.489-24,0,0-.044-1.041-.838-1.269,0,0-.724-.292-1.415.635a25.293,25.293,0,0,0-4.709,14.388,10.238,10.238,0,0,0,.3,3.173s.241.444,1.472.546l1.561.209s.286,0,.26.381c0,0-.355,4.677-.457,5.509a1.665,1.665,0,0,1-.114.552s-.057.159-.546.14c0,0-6.88-.051-7.654,0,0,0-.324,0-.393-.171s-.476-6.036-.463-6.867a.413.413,0,0,1,.241-.406,4.138,4.138,0,0,0,1.9-3.04,16.768,16.768,0,0,0,.038-2.672s.254-8.968.317-10.408c0,0,.051-.489-.584-.578A.59.59,0,0,0,16.6,15v.051c0,.051-.444,5.915-.362,8.251,0,0,.152,1.53-.908,1.561,0,0-1.028.152-1.079-1.123,0,0,.076-5.75.33-8.593a.644.644,0,0,0-1.276-.121.137.137,0,0,0,0,.051s-.444,5.5-.362,8.409c0,0,.127,1.409-1,1.358,0,0-.939.108-.99-1.142,0,0,.254-7.876.324-8.485a.635.635,0,0,0-.565-.6h-.063a.635.635,0,0,0-.679.527.173.173,0,0,0,0,.057s-.419,9.418-.362,12.186c0,0-.038,2.843,2.063,4,0,0,.311.178.317.451,0,0,.235,4.995.451,6.607,0,0,.076.387-.267.387l-5.287.146A1.086,1.086,0,0,1,5.81,37.949a118.36,118.36,0,0,1-.977-15.962.813.813,0,0,0-.635-.869S1.495,20.87.841,20.7A1.124,1.124,0,0,1,.035,19.34a1.276,1.276,0,0,1,.121-.292A54.373,54.373,0,0,1,18.1.377" transform="translate(0 0)" fill="#fff"/>
    <path id="Trazado_31" data-name="Trazado 31" d="M81.343,23.9H76.126c-1.688,0-1.688,0-2.044,1.974s-.349,2.044,1.2,2.044h3.1L76.621,38.005c-.425,2.253-1.409,3.808-4.443,4.722-.774.209-.984.489-.984.844a4.214,4.214,0,0,0,.5,1.618c.489,1.2.774,1.415,1.193,1.415a8.045,8.045,0,0,0,1.485-.286c4.3-1.409,6.061-4.722,6.766-8.669L83.108,26.3c.349-2.4.349-2.4-1.764-2.4" transform="translate(-26.01 -8.733)" fill="#fff"/>
    <path id="Trazado_32" data-name="Trazado 32" d="M106.307,23.9c-2.113,0-2.113,0-2.4,1.764l-1.523,9.165c-.425,2.678-1.13,4.227-3.738,4.227s-3.453-1.549-3.027-3.948L97.1,26.372c.425-2.469.349-2.469-1.834-2.469s-2.183,0-2.469,1.695l-1.549,9.165c-.914,5.217,2.329,8.454,6.911,8.454,5.141,0,7.749-2.323,8.593-7.819l1.555-9.095c.349-2.4.209-2.4-1.974-2.4" transform="translate(-33.279 -8.733)" fill="#fff"/>
    <path id="Trazado_33" data-name="Trazado 33" d="M125.787,38.838c1.695-.07,2.608-.844,2.608-1.618,0-.99-1.2-1.339-2.818-1.834-3.173-.99-6.061-2.113-6.061-5.5,0-4.017,3.313-6.207,7.47-6.207a49.777,49.777,0,0,1,5.007.216c1.123.14,1.409.489,1.054,2.253s-.774,1.9-1.758,1.834c-1.2-.07-2.754-.216-4.582-.216-2.113,0-2.748.781-2.748,1.485,0,.914.844,1.409,2.818,1.974,3.662,1.054,6.061,2.539,6.061,5.712,0,3.738-2.748,5.921-7.191,6.061a35.384,35.384,0,0,1-6.347-.349c-1.415-.216-1.485-.216-1.13-2.259.349-1.828.349-1.974,1.688-1.828a37.915,37.915,0,0,0,5.921.279" transform="translate(-43.106 -8.651)" fill="#fff"/>
    <path id="Trazado_34" data-name="Trazado 34" d="M158.459,23.9H146.547c-1.688,0-1.688,0-2.044,2.05S144.224,28,145.7,28h3.878l-2.19,12.642c-.419,2.462-.349,2.462,1.834,2.462,2.044,0,2.113,0,2.4-1.758l2.253-13.328h3.738c1.688,0,1.688,0,2.044-2.044s.349-2.05-1.2-2.05" transform="translate(-52.728 -8.733)" fill="#fff"/>
    <path id="Trazado_35" data-name="Trazado 35" d="M191.869,27.92c1.688,0,1.688,0,2.044-2.044s.349-2.044-1.2-2.044h-8.53c-3.034,0-2.958,0-3.453,3.034l-2.183,12.757c-.565,3.313-.5,3.313,2.539,3.313h8.32c1.764,0,1.688,0,2.044-1.974s.349-2.044-1.2-2.044h-7.2l.565-3.668h5.991c1.625,0,1.625,0,1.9-1.9s.279-1.974-1.9-1.974h-5.287l.565-3.459Z" transform="translate(-65.13 -8.707)" fill="#fff"/>
    <path id="Trazado_36" data-name="Trazado 36" d="M209.2,34.652l2.748-6.061c.216-.5.216-.5.565-.5s.355,0,.425.565l.844,5.991Zm7.47-8.46c-.419-2.4-.419-2.4-3.808-2.4-3.173,0-3.1,0-4.087,1.974l-7.121,14.876c-1.06,2.113-.844,2.323,1.758,2.323,2.05,0,2.05,0,2.894-1.9l1.123-2.539h6.911l.349,2.539c.286,1.9.355,1.9,2.4,1.9,2.329,0,2.539-.14,2.113-2.469Z" transform="translate(-73.453 -8.692)" fill="#fff"/>
    <path id="Trazado_37" data-name="Trazado 37" d="M244.05,23.9H232.067c-1.695,0-1.695,0-2.044,2.05S229.738,28,231.217,28h3.878l-2.183,12.642c-.425,2.462-.355,2.462,1.834,2.462,2.044,0,2.113,0,2.393-1.758L239.4,28.016h3.732c1.695,0,1.695,0,2.044-2.044s.425-2.05-1.123-2.05" transform="translate(-83.972 -8.733)" fill="#fff"/>
  </g>
</svg>
