<svg id="instagram" xmlns="http://www.w3.org/2000/svg" width="30.589" height="30.595" viewBox="0 0 30.589 30.595">
  <path id="Trazado_24" data-name="Trazado 24" d="M30.96,9a11.18,11.18,0,0,0-.711-3.712A7.837,7.837,0,0,0,25.772.807,11.208,11.208,0,0,0,22.061.1C20.423.018,19.9,0,15.749,0S11.075.018,9.444.09A11.183,11.183,0,0,0,5.732.8,7.465,7.465,0,0,0,3.019,2.57,7.533,7.533,0,0,0,1.255,5.278,11.21,11.21,0,0,0,.544,8.989c-.078,1.638-.1,2.158-.1,6.312s.018,4.674.09,6.306a11.179,11.179,0,0,0,.711,3.712,7.836,7.836,0,0,0,4.477,4.477,11.21,11.21,0,0,0,3.712.711c1.631.072,2.152.09,6.306.09s4.674-.018,6.306-.09a11.177,11.177,0,0,0,3.711-.711,7.826,7.826,0,0,0,4.477-4.477,11.217,11.217,0,0,0,.711-3.712c.072-1.632.09-2.152.09-6.306S31.032,10.627,30.96,9ZM28.2,21.487a8.386,8.386,0,0,1-.526,2.839,5.075,5.075,0,0,1-2.9,2.9,8.416,8.416,0,0,1-2.839.526c-1.614.072-2.1.09-6.18.09s-4.572-.018-6.18-.09a8.382,8.382,0,0,1-2.839-.526,4.708,4.708,0,0,1-1.757-1.142,4.757,4.757,0,0,1-1.142-1.757,8.417,8.417,0,0,1-.526-2.839c-.072-1.614-.09-2.1-.09-6.18s.018-4.572.09-6.18a8.382,8.382,0,0,1,.526-2.839A4.65,4.65,0,0,1,4.985,4.536,4.749,4.749,0,0,1,6.742,3.395a8.421,8.421,0,0,1,2.839-.526c1.614-.072,2.1-.09,6.18-.09s4.572.018,6.18.09a8.386,8.386,0,0,1,2.839.526,4.7,4.7,0,0,1,1.757,1.141,4.756,4.756,0,0,1,1.142,1.757A8.42,8.42,0,0,1,28.2,9.133c.072,1.614.09,2.1.09,6.18s-.018,4.56-.09,6.174Zm0,0" transform="translate(-0.449 0)" fill="#fff"/>
  <path id="Trazado_25" data-name="Trazado 25" d="M132.809,124.5a7.859,7.859,0,1,0,7.859,7.859A7.861,7.861,0,0,0,132.809,124.5Zm0,12.958a5.1,5.1,0,1,1,5.1-5.1A5.1,5.1,0,0,1,132.809,137.458Zm0,0" transform="translate(-117.508 -117.059)" fill="#fff"/>
  <path id="Trazado_26" data-name="Trazado 26" d="M366.12,90.437a1.835,1.835,0,1,1-1.835-1.835A1.835,1.835,0,0,1,366.12,90.437Zm0,0" transform="translate(-340.814 -83.306)" fill="#fff"/>
</svg>
