<svg id="tik-tok_1_" data-name="tik-tok (1)" xmlns="http://www.w3.org/2000/svg" width="26.88" height="30.595" viewBox="0 0 26.88 30.595">
  <path id="Trazado_27" data-name="Trazado 27" d="M58.289,8.051a7.709,7.709,0,0,1-4.658-1.557A7.727,7.727,0,0,1,50.7,1.836,7.767,7.767,0,0,1,50.551.39h-5V14.04l-.006,7.477a4.529,4.529,0,1,1-3.106-4.291V12.154A9.83,9.83,0,0,0,41,12.048a9.579,9.579,0,0,0-7.2,3.219,9.387,9.387,0,0,0,.424,12.945,9.746,9.746,0,0,0,.9.788A9.58,9.58,0,0,0,41,30.985a9.83,9.83,0,0,0,1.441-.106,9.548,9.548,0,0,0,5.334-2.667,9.353,9.353,0,0,0,2.806-6.656l-.026-11.165A12.658,12.658,0,0,0,58.3,13.023V8.049s-.013,0-.014,0Z" transform="translate(-31.423 -0.39)" fill="#fff"/>
</svg>
